<?xml version="1.0" encoding="UTF-8"?>
<!DOCTYPE svg PUBLIC "-//W3C//DTD SVG 1.1//EN" "http://www.w3.org/Graphics/SVG/1.1/DTD/svg11.dtd">
<svg xmlns="http://www.w3.org/2000/svg" version="1.1" width="1024px" height="1024px" style="shape-rendering:geometricPrecision; text-rendering:geometricPrecision; image-rendering:optimizeQuality; fill-rule:evenodd; clip-rule:evenodd" xmlns:xlink="http://www.w3.org/1999/xlink">
<g><path style="opacity:1" fill="#fffefe" d="M -0.5,-0.5 C 340.833,-0.5 682.167,-0.5 1023.5,-0.5C 1023.5,340.833 1023.5,682.167 1023.5,1023.5C 682.167,1023.5 340.833,1023.5 -0.5,1023.5C -0.5,682.167 -0.5,340.833 -0.5,-0.5 Z"/></g>
<g><path style="opacity:1" fill="#ff9f91" d="M 483.5,272.5 C 493.653,271.506 503.986,271.172 514.5,271.5C 514.264,289.049 514.264,306.549 514.5,324C 511.305,324.181 508.305,324.681 505.5,325.5C 498.833,325.5 492.167,325.5 485.5,325.5C 487.931,323.932 487.931,322.432 485.5,321C 488.167,319.667 488.167,318.333 485.5,317C 488.167,315.667 488.167,314.333 485.5,313C 488.167,311.667 488.167,310.333 485.5,309C 488.167,307.667 488.167,306.333 485.5,305C 488.167,303.667 488.167,302.333 485.5,301C 488.167,299.667 488.167,298.333 485.5,297C 488.167,295.667 488.167,294.333 485.5,293C 488.167,291.667 488.167,290.333 485.5,289C 488.167,287.667 488.167,286.333 485.5,285C 488.167,283.667 488.167,282.333 485.5,281C 488.167,279.667 488.167,278.333 485.5,277C 487.775,274.682 487.109,273.182 483.5,272.5 Z"/></g>
<g><path style="opacity:1" fill="#ffa68c" d="M 514.5,271.5 C 524.709,271.288 534.709,271.954 544.5,273.5C 543.244,273.461 542.244,273.961 541.5,275C 541.599,292.12 541.932,309.287 542.5,326.5C 530.175,325.906 517.842,325.573 505.5,325.5C 508.305,324.681 511.305,324.181 514.5,324C 514.264,306.549 514.264,289.049 514.5,271.5 Z"/></g>
<g><path style="opacity:1" fill="#ff9b95" d="M 483.5,272.5 C 487.109,273.182 487.775,274.682 485.5,277C 488.167,278.333 488.167,279.667 485.5,281C 488.167,282.333 488.167,283.667 485.5,285C 488.167,286.333 488.167,287.667 485.5,289C 488.167,290.333 488.167,291.667 485.5,293C 488.167,294.333 488.167,295.667 485.5,297C 488.167,298.333 488.167,299.667 485.5,301C 488.167,302.333 488.167,303.667 485.5,305C 488.167,306.333 488.167,307.667 485.5,309C 488.167,310.333 488.167,311.667 485.5,313C 488.167,314.333 488.167,315.667 485.5,317C 488.167,318.333 488.167,319.667 485.5,321C 487.931,322.432 487.931,323.932 485.5,325.5C 482.091,326.903 478.425,327.57 474.5,327.5C 473.348,325.319 473.681,323.153 475.5,321C 474.01,319.337 473.344,317.67 473.5,316C 474.574,315.261 475.241,314.261 475.5,313C 474.01,311.337 473.344,309.67 473.5,308C 474.574,307.261 475.241,306.261 475.5,305C 474.01,303.337 473.344,301.67 473.5,300C 474.574,299.261 475.241,298.261 475.5,297C 474.01,295.337 473.344,293.67 473.5,292C 474.574,291.261 475.241,290.261 475.5,289C 474.01,287.337 473.344,285.67 473.5,284C 476.167,282 476.167,280 473.5,278C 473.736,276.549 473.736,275.049 473.5,273.5C 476.764,272.676 480.098,272.342 483.5,272.5 Z"/></g>
<g><path style="opacity:1" fill="#ff9898" d="M 473.5,273.5 C 473.736,275.049 473.736,276.549 473.5,278C 476.167,280 476.167,282 473.5,284C 473.344,285.67 474.01,287.337 475.5,289C 475.241,290.261 474.574,291.261 473.5,292C 473.344,293.67 474.01,295.337 475.5,297C 475.241,298.261 474.574,299.261 473.5,300C 473.344,301.67 474.01,303.337 475.5,305C 475.241,306.261 474.574,307.261 473.5,308C 473.344,309.67 474.01,311.337 475.5,313C 475.241,314.261 474.574,315.261 473.5,316C 473.344,317.67 474.01,319.337 475.5,321C 473.681,323.153 473.348,325.319 474.5,327.5C 467.762,328.129 461.095,329.129 454.5,330.5C 453.294,329.12 453.627,327.953 455.5,327C 454.833,326.333 454.167,325.667 453.5,325C 453.5,323.667 453.5,322.333 453.5,321C 456.167,319.667 456.167,318.333 453.5,317C 453.5,315.667 453.5,314.333 453.5,313C 456.167,311.667 456.167,310.333 453.5,309C 453.5,307.667 453.5,306.333 453.5,305C 456.167,303.667 456.167,302.333 453.5,301C 453.5,299.667 453.5,298.333 453.5,297C 456.167,295.667 456.167,294.333 453.5,293C 453.5,291.667 453.5,290.333 453.5,289C 456.167,287.667 456.167,286.333 453.5,285C 454.833,283 454.833,281 453.5,279C 452.095,277.731 450.429,277.231 448.5,277.5C 456.589,275.447 464.922,274.114 473.5,273.5 Z"/></g>
<g><path style="opacity:1" fill="#ffab86" d="M 544.5,273.5 C 552.915,273.908 561.249,274.908 569.5,276.5C 570.265,294.711 570.598,313.044 570.5,331.5C 561.106,329.499 551.773,327.832 542.5,326.5C 541.932,309.287 541.599,292.12 541.5,275C 542.244,273.961 543.244,273.461 544.5,273.5 Z"/></g>
<g><path style="opacity:1" fill="#ffb280" d="M 569.5,276.5 C 580.34,278.194 591.007,280.527 601.5,283.5C 601.835,301.84 601.501,320.007 600.5,338C 601.381,338.708 602.047,339.542 602.5,340.5C 592.011,336.878 581.344,333.878 570.5,331.5C 570.598,313.044 570.265,294.711 569.5,276.5 Z"/></g>
<g><path style="opacity:1" fill="#ff929d" d="M 448.5,277.5 C 450.429,277.231 452.095,277.731 453.5,279C 454.833,281 454.833,283 453.5,285C 456.167,286.333 456.167,287.667 453.5,289C 453.5,290.333 453.5,291.667 453.5,293C 456.167,294.333 456.167,295.667 453.5,297C 453.5,298.333 453.5,299.667 453.5,301C 456.167,302.333 456.167,303.667 453.5,305C 453.5,306.333 453.5,307.667 453.5,309C 456.167,310.333 456.167,311.667 453.5,313C 453.5,314.333 453.5,315.667 453.5,317C 456.167,318.333 456.167,319.667 453.5,321C 453.5,322.333 453.5,323.667 453.5,325C 454.167,325.667 454.833,326.333 455.5,327C 453.627,327.953 453.294,329.12 454.5,330.5C 444.972,332.604 435.639,335.271 426.5,338.5C 425.294,337.12 425.627,335.953 427.5,335C 424.833,333.667 424.833,332.333 427.5,331C 424.833,329.667 424.833,328.333 427.5,327C 424.833,325.667 424.833,324.333 427.5,323C 424.833,321.667 424.833,320.333 427.5,319C 424.833,317.667 424.833,316.333 427.5,315C 424.833,313.667 424.833,312.333 427.5,311C 424.833,309.667 424.833,308.333 427.5,307C 424.833,305.667 424.833,304.333 427.5,303C 424.833,301.667 424.833,300.333 427.5,299C 424.833,297.667 424.833,296.333 427.5,295C 424.833,293.667 424.833,292.333 427.5,291C 424.833,289.667 424.833,288.333 427.5,287C 426.211,285.198 424.544,284.031 422.5,283.5C 430.845,280.627 439.512,278.627 448.5,277.5 Z"/></g>
<g><path style="opacity:1" fill="#ff8da1" d="M 422.5,283.5 C 424.544,284.031 426.211,285.198 427.5,287C 424.833,288.333 424.833,289.667 427.5,291C 424.833,292.333 424.833,293.667 427.5,295C 424.833,296.333 424.833,297.667 427.5,299C 424.833,300.333 424.833,301.667 427.5,303C 424.833,304.333 424.833,305.667 427.5,307C 424.833,308.333 424.833,309.667 427.5,311C 424.833,312.333 424.833,313.667 427.5,315C 424.833,316.333 424.833,317.667 427.5,319C 424.833,320.333 424.833,321.667 427.5,323C 424.833,324.333 424.833,325.667 427.5,327C 424.833,328.333 424.833,329.667 427.5,331C 424.833,332.333 424.833,333.667 427.5,335C 425.627,335.953 425.294,337.12 426.5,338.5C 417.079,341.64 407.746,344.973 398.5,348.5C 399.068,329.953 399.401,311.453 399.5,293C 398.956,292.283 398.289,291.783 397.5,291.5C 405.498,288.057 413.831,285.391 422.5,283.5 Z"/></g>
<g><path style="opacity:1" fill="#ffb87a" d="M 601.5,283.5 C 611.375,286.457 621.042,289.791 630.5,293.5C 628.566,295.238 628.233,297.071 629.5,299C 626.833,300.333 626.833,301.667 629.5,303C 629.5,304.333 629.5,305.667 629.5,307C 626.833,308.333 626.833,309.667 629.5,311C 629.5,312.333 629.5,313.667 629.5,315C 626.833,316.333 626.833,317.667 629.5,319C 629.5,320.333 629.5,321.667 629.5,323C 626.833,324.333 626.833,325.667 629.5,327C 629.5,328.333 629.5,329.667 629.5,331C 626.833,332.333 626.833,333.667 629.5,335C 629.5,336.333 629.5,337.667 629.5,339C 626.833,340.333 626.833,341.667 629.5,343C 629.21,345.812 629.21,348.645 629.5,351.5C 620.614,347.557 611.614,343.89 602.5,340.5C 602.047,339.542 601.381,338.708 600.5,338C 601.501,320.007 601.835,301.84 601.5,283.5 Z"/></g>
<g><path style="opacity:1" fill="#ff87a7" d="M 397.5,291.5 C 398.289,291.783 398.956,292.283 399.5,293C 399.401,311.453 399.068,329.953 398.5,348.5C 389.374,353.231 380.374,358.231 371.5,363.5C 370.402,343.951 370.402,324.451 371.5,305C 370.956,304.283 370.289,303.783 369.5,303.5C 378.346,298.545 387.679,294.545 397.5,291.5 Z"/></g>
<g><path style="opacity:1" fill="#ffbe75" d="M 630.5,293.5 C 640.59,297.048 650.257,301.381 659.5,306.5C 655.891,307.182 655.225,308.682 657.5,311C 654.833,312.333 654.833,313.667 657.5,315C 654.833,316.333 654.833,317.667 657.5,319C 654.833,320.333 654.833,321.667 657.5,323C 654.833,324.333 654.833,325.667 657.5,327C 654.833,328.333 654.833,329.667 657.5,331C 654.833,332.333 654.833,333.667 657.5,335C 654.833,336.333 654.833,337.667 657.5,339C 654.833,340.333 654.833,341.667 657.5,343C 654.833,344.333 654.833,345.667 657.5,347C 654.833,348.333 654.833,349.667 657.5,351C 654.833,352.333 654.833,353.667 657.5,355C 654.833,356.333 654.833,357.667 657.5,359C 654.833,360.333 654.833,361.667 657.5,363C 656.177,363.816 655.511,364.983 655.5,366.5C 647.16,360.995 638.493,355.995 629.5,351.5C 629.21,348.645 629.21,345.812 629.5,343C 626.833,341.667 626.833,340.333 629.5,339C 629.5,337.667 629.5,336.333 629.5,335C 626.833,333.667 626.833,332.333 629.5,331C 629.5,329.667 629.5,328.333 629.5,327C 626.833,325.667 626.833,324.333 629.5,323C 629.5,321.667 629.5,320.333 629.5,319C 626.833,317.667 626.833,316.333 629.5,315C 629.5,313.667 629.5,312.333 629.5,311C 626.833,309.667 626.833,308.333 629.5,307C 629.5,305.667 629.5,304.333 629.5,303C 626.833,301.667 626.833,300.333 629.5,299C 628.233,297.071 628.566,295.238 630.5,293.5 Z"/></g>
<g><path style="opacity:1" fill="#ff81ac" d="M 369.5,303.5 C 370.289,303.783 370.956,304.283 371.5,305C 370.402,324.451 370.402,343.951 371.5,363.5C 363.523,369.134 355.523,374.801 347.5,380.5C 346.402,359.618 346.402,338.784 347.5,318C 346.956,317.283 346.289,316.783 345.5,316.5C 353.173,311.662 361.173,307.328 369.5,303.5 Z"/></g>
<g><path style="opacity:1" fill="#ffc570" d="M 659.5,306.5 C 668.366,310.76 676.7,315.76 684.5,321.5C 683.761,321.369 683.094,321.536 682.5,322C 682.736,343.451 682.736,364.951 682.5,386.5C 673.708,379.599 664.708,372.932 655.5,366.5C 655.511,364.983 656.177,363.816 657.5,363C 654.833,361.667 654.833,360.333 657.5,359C 654.833,357.667 654.833,356.333 657.5,355C 654.833,353.667 654.833,352.333 657.5,351C 654.833,349.667 654.833,348.333 657.5,347C 654.833,345.667 654.833,344.333 657.5,343C 654.833,341.667 654.833,340.333 657.5,339C 654.833,337.667 654.833,336.333 657.5,335C 654.833,333.667 654.833,332.333 657.5,331C 654.833,329.667 654.833,328.333 657.5,327C 654.833,325.667 654.833,324.333 657.5,323C 654.833,321.667 654.833,320.333 657.5,319C 654.833,317.667 654.833,316.333 657.5,315C 654.833,313.667 654.833,312.333 657.5,311C 655.225,308.682 655.891,307.182 659.5,306.5 Z"/></g>
<g><path style="opacity:1" fill="#ff7daf" d="M 345.5,316.5 C 346.289,316.783 346.956,317.283 347.5,318C 346.402,338.784 346.402,359.618 347.5,380.5C 345.451,383.55 342.784,385.883 339.5,387.5C 339.167,365.5 338.833,343.5 338.5,321.5C 340.531,319.478 342.865,317.811 345.5,316.5 Z"/></g>
<g><path style="opacity:1" fill="#ff7ab2" d="M 338.5,321.5 C 338.833,343.5 339.167,365.5 339.5,387.5C 329.719,397.605 320.719,408.272 312.5,419.5C 312.741,393.211 312.408,367.211 311.5,341.5C 319.601,333.617 328.601,326.95 338.5,321.5 Z"/></g>
<g><path style="opacity:1" fill="#ffc96c" d="M 684.5,321.5 C 690.024,324.092 695.024,327.425 699.5,331.5C 696.174,331.967 695.841,333.134 698.5,335C 695.833,336.333 695.833,337.667 698.5,339C 695.833,340.333 695.833,341.667 698.5,343C 695.833,344.333 695.833,345.667 698.5,347C 695.833,348.333 695.833,349.667 698.5,351C 695.833,352.333 695.833,353.667 698.5,355C 695.833,356.333 695.833,357.667 698.5,359C 695.833,360.333 695.833,361.667 698.5,363C 695.833,364.333 695.833,365.667 698.5,367C 695.833,368.333 695.833,369.667 698.5,371C 695.833,372.333 695.833,373.667 698.5,375C 695.833,376.333 695.833,377.667 698.5,379C 695.833,380.333 695.833,381.667 698.5,383C 695.833,384.333 695.833,385.667 698.5,387C 695.833,388.333 695.833,389.667 698.5,391C 695.833,392.333 695.833,393.667 698.5,395C 695.833,396.333 695.833,397.667 698.5,399C 697.619,399.708 696.953,400.542 696.5,401.5C 691.861,396.526 687.195,391.526 682.5,386.5C 682.736,364.951 682.736,343.451 682.5,322C 683.094,321.536 683.761,321.369 684.5,321.5 Z"/></g>
<g><path style="opacity:1" fill="#fefefe" d="M 485.5,325.5 C 492.167,325.5 498.833,325.5 505.5,325.5C 517.842,325.573 530.175,325.906 542.5,326.5C 551.773,327.832 561.106,329.499 570.5,331.5C 581.344,333.878 592.011,336.878 602.5,340.5C 611.614,343.89 620.614,347.557 629.5,351.5C 638.493,355.995 647.16,360.995 655.5,366.5C 664.708,372.932 673.708,379.599 682.5,386.5C 687.195,391.526 691.861,396.526 696.5,401.5C 703.247,409.342 709.247,417.675 714.5,426.5C 722.166,440.146 727.832,454.479 731.5,469.5C 734.041,486.49 734.041,503.49 731.5,520.5C 727.569,534.949 722.236,548.949 715.5,562.5C 709.866,570.477 704.199,578.477 698.5,586.5C 693.195,592.14 687.861,597.807 682.5,603.5C 674.118,610.55 665.452,617.216 656.5,623.5C 648.16,629.005 639.493,634.005 630.5,638.5C 620.721,643.056 610.721,647.056 600.5,650.5C 590.748,654.051 580.748,656.718 570.5,658.5C 561.233,660.483 551.9,662.149 542.5,663.5C 529.52,664.354 516.52,664.687 503.5,664.5C 498.167,664.5 492.833,664.5 487.5,664.5C 483.167,663.833 478.833,663.167 474.5,662.5C 468.057,661.961 461.724,660.961 455.5,659.5C 446.102,657.42 436.769,655.087 427.5,652.5C 417.943,649.388 408.61,645.721 399.5,641.5C 389.88,637.024 380.547,632.024 371.5,626.5C 362.637,621.235 354.304,615.235 346.5,608.5C 344.192,606.529 341.858,604.529 339.5,602.5C 328.672,591.683 319.005,580.017 310.5,567.5C 281.84,517.706 282.506,468.372 312.5,419.5C 320.719,408.272 329.719,397.605 339.5,387.5C 342.784,385.883 345.451,383.55 347.5,380.5C 355.523,374.801 363.523,369.134 371.5,363.5C 380.374,358.231 389.374,353.231 398.5,348.5C 407.746,344.973 417.079,341.64 426.5,338.5C 435.639,335.271 444.972,332.604 454.5,330.5C 461.095,329.129 467.762,328.129 474.5,327.5C 478.425,327.57 482.091,326.903 485.5,325.5 Z"/></g>
<g><path style="opacity:1" fill="#ffcc69" d="M 699.5,331.5 C 706.429,336.13 712.763,341.464 718.5,347.5C 713.578,347.11 713.244,348.277 717.5,351C 716.5,352 715.5,353 714.5,354C 715.833,354.667 715.833,355.333 714.5,356C 715.5,357 716.5,358 717.5,359C 716.5,360 715.5,361 714.5,362C 715.833,362.667 715.833,363.333 714.5,364C 715.5,365 716.5,366 717.5,367C 716.5,368 715.5,369 714.5,370C 715.833,370.667 715.833,371.333 714.5,372C 715.5,373 716.5,374 717.5,375C 716.5,376 715.5,377 714.5,378C 715.833,378.667 715.833,379.333 714.5,380C 715.5,381 716.5,382 717.5,383C 716.5,384 715.5,385 714.5,386C 715.833,386.667 715.833,387.333 714.5,388C 715.5,389 716.5,390 717.5,391C 716.5,392 715.5,393 714.5,394C 715.833,394.667 715.833,395.333 714.5,396C 715.5,397 716.5,398 717.5,399C 716.5,400 715.5,401 714.5,402C 715.833,402.667 715.833,403.333 714.5,404C 715.5,405 716.5,406 717.5,407C 716.5,408 715.5,409 714.5,410C 715.833,410.667 715.833,411.333 714.5,412C 715.5,413 716.5,414 717.5,415C 716.5,416 715.5,417 714.5,418C 715.833,418.667 715.833,419.333 714.5,420C 715.5,421 716.5,422 717.5,423C 716.29,424.039 715.29,425.206 714.5,426.5C 709.247,417.675 703.247,409.342 696.5,401.5C 696.953,400.542 697.619,399.708 698.5,399C 695.833,397.667 695.833,396.333 698.5,395C 695.833,393.667 695.833,392.333 698.5,391C 695.833,389.667 695.833,388.333 698.5,387C 695.833,385.667 695.833,384.333 698.5,383C 695.833,381.667 695.833,380.333 698.5,379C 695.833,377.667 695.833,376.333 698.5,375C 695.833,373.667 695.833,372.333 698.5,371C 695.833,369.667 695.833,368.333 698.5,367C 695.833,365.667 695.833,364.333 698.5,363C 695.833,361.667 695.833,360.333 698.5,359C 695.833,357.667 695.833,356.333 698.5,355C 695.833,353.667 695.833,352.333 698.5,351C 695.833,349.667 695.833,348.333 698.5,347C 695.833,345.667 695.833,344.333 698.5,343C 695.833,341.667 695.833,340.333 698.5,339C 695.833,337.667 695.833,336.333 698.5,335C 695.841,333.134 696.174,331.967 699.5,331.5 Z"/></g>
<g><path style="opacity:1" fill="#ff73b8" d="M 311.5,341.5 C 312.408,367.211 312.741,393.211 312.5,419.5C 282.506,468.372 281.84,517.706 310.5,567.5C 309.608,569.903 310.275,572.069 312.5,574C 311.167,597.333 311.167,620.667 312.5,644C 311.307,645.095 309.973,645.928 308.5,646.5C 299.466,638.467 291.133,629.8 283.5,620.5C 283.931,537.785 284.265,454.951 284.5,372C 283.552,371.517 282.552,371.351 281.5,371.5C 290.5,360.5 300.5,350.5 311.5,341.5 Z"/></g>
<g><path style="opacity:1" fill="#ffd065" d="M 718.5,347.5 C 724.833,353.167 730.833,359.167 736.5,365.5C 734.847,366.605 733.18,366.771 731.5,366C 732.168,400.333 732.168,434.833 731.5,469.5C 727.832,454.479 722.166,440.146 714.5,426.5C 715.29,425.206 716.29,424.039 717.5,423C 716.5,422 715.5,421 714.5,420C 715.833,419.333 715.833,418.667 714.5,418C 715.5,417 716.5,416 717.5,415C 716.5,414 715.5,413 714.5,412C 715.833,411.333 715.833,410.667 714.5,410C 715.5,409 716.5,408 717.5,407C 716.5,406 715.5,405 714.5,404C 715.833,403.333 715.833,402.667 714.5,402C 715.5,401 716.5,400 717.5,399C 716.5,398 715.5,397 714.5,396C 715.833,395.333 715.833,394.667 714.5,394C 715.5,393 716.5,392 717.5,391C 716.5,390 715.5,389 714.5,388C 715.833,387.333 715.833,386.667 714.5,386C 715.5,385 716.5,384 717.5,383C 716.5,382 715.5,381 714.5,380C 715.833,379.333 715.833,378.667 714.5,378C 715.5,377 716.5,376 717.5,375C 716.5,374 715.5,373 714.5,372C 715.833,371.333 715.833,370.667 714.5,370C 715.5,369 716.5,368 717.5,367C 716.5,366 715.5,365 714.5,364C 715.833,363.333 715.833,362.667 714.5,362C 715.5,361 716.5,360 717.5,359C 716.5,358 715.5,357 714.5,356C 715.833,355.333 715.833,354.667 714.5,354C 715.5,353 716.5,352 717.5,351C 713.244,348.277 713.578,347.11 718.5,347.5 Z"/></g>
<g><path style="opacity:1" fill="#ffd362" d="M 736.5,365.5 C 739.739,368.983 742.739,372.65 745.5,376.5C 744.761,376.369 744.094,376.536 743.5,377C 743.5,455.667 743.5,534.333 743.5,613C 744.094,613.464 744.761,613.631 745.5,613.5C 742.848,617.482 739.848,621.149 736.5,624.5C 735.12,623.294 733.953,623.627 733,625.5C 732.5,625 732,624.5 731.5,624C 732.168,589.667 732.168,555.167 731.5,520.5C 734.041,503.49 734.041,486.49 731.5,469.5C 732.168,434.833 732.168,400.333 731.5,366C 733.18,366.771 734.847,366.605 736.5,365.5 Z"/></g>
<g><path style="opacity:1" fill="#ff6fbb" d="M 281.5,371.5 C 282.552,371.351 283.552,371.517 284.5,372C 284.265,454.951 283.931,537.785 283.5,620.5C 280.705,618.249 278.372,615.582 276.5,612.5C 277.289,612.217 277.956,611.717 278.5,611C 278.5,533.667 278.5,456.333 278.5,379C 277.906,378.536 277.239,378.369 276.5,378.5C 277.779,375.888 279.445,373.555 281.5,371.5 Z"/></g>
<g><path style="opacity:1" fill="#ffd660" d="M 745.5,376.5 C 753.684,386.697 760.684,397.697 766.5,409.5C 764.076,410.892 762.743,412.725 762.5,415C 763.167,415.667 763.833,416.333 764.5,417C 764.5,418.333 764.5,419.667 764.5,421C 761.833,422.333 761.833,423.667 764.5,425C 764.5,426.333 764.5,427.667 764.5,429C 761.833,430.333 761.833,431.667 764.5,433C 764.5,434.333 764.5,435.667 764.5,437C 761.833,438.333 761.833,439.667 764.5,441C 764.5,442.333 764.5,443.667 764.5,445C 761.833,446.333 761.833,447.667 764.5,449C 764.5,450.333 764.5,451.667 764.5,453C 761.833,454.333 761.833,455.667 764.5,457C 764.5,458.333 764.5,459.667 764.5,461C 761.833,462.333 761.833,463.667 764.5,465C 764.5,466.333 764.5,467.667 764.5,469C 761.833,470.333 761.833,471.667 764.5,473C 764.5,474.333 764.5,475.667 764.5,477C 761.833,478.333 761.833,479.667 764.5,481C 764.5,482.333 764.5,483.667 764.5,485C 761.833,486.333 761.833,487.667 764.5,489C 764.5,490.333 764.5,491.667 764.5,493C 761.833,494.333 761.833,495.667 764.5,497C 764.5,498.333 764.5,499.667 764.5,501C 761.833,502.333 761.833,503.667 764.5,505C 765.061,506.566 764.394,507.899 762.5,509C 763.167,509.667 763.833,510.333 764.5,511C 764.5,512.333 764.5,513.667 764.5,515C 761.833,516.333 761.833,517.667 764.5,519C 764.5,520.333 764.5,521.667 764.5,523C 761.833,524.333 761.833,525.667 764.5,527C 764.5,528.333 764.5,529.667 764.5,531C 761.833,532.333 761.833,533.667 764.5,535C 764.5,536.333 764.5,537.667 764.5,539C 761.833,540.333 761.833,541.667 764.5,543C 764.5,544.333 764.5,545.667 764.5,547C 761.833,548.333 761.833,549.667 764.5,551C 764.5,552.333 764.5,553.667 764.5,555C 761.833,556.333 761.833,557.667 764.5,559C 764.5,560.333 764.5,561.667 764.5,563C 761.833,564.333 761.833,565.667 764.5,567C 764.5,568.333 764.5,569.667 764.5,571C 761.833,572.333 761.833,573.667 764.5,575C 764.167,576 763.833,577 763.5,578C 764.078,579.417 765.078,580.25 766.5,580.5C 760.65,592.326 753.65,603.326 745.5,613.5C 744.761,613.631 744.094,613.464 743.5,613C 743.5,534.333 743.5,455.667 743.5,377C 744.094,376.536 744.761,376.369 745.5,376.5 Z"/></g>
<g><path style="opacity:1" fill="#ff6dbd" d="M 276.5,378.5 C 277.239,378.369 277.906,378.536 278.5,379C 278.5,456.333 278.5,533.667 278.5,611C 277.956,611.717 277.289,612.217 276.5,612.5C 268.011,601.314 260.678,589.314 254.5,576.5C 257.826,576.033 258.159,574.866 255.5,573C 255.5,571.667 255.5,570.333 255.5,569C 258.167,567.667 258.167,566.333 255.5,565C 255.5,563.667 255.5,562.333 255.5,561C 258.167,559.667 258.167,558.333 255.5,557C 255.5,555.667 255.5,554.333 255.5,553C 258.167,551.667 258.167,550.333 255.5,549C 255.5,547.667 255.5,546.333 255.5,545C 258.167,543.667 258.167,542.333 255.5,541C 255.5,539.667 255.5,538.333 255.5,537C 258.167,535.667 258.167,534.333 255.5,533C 255.5,531.667 255.5,530.333 255.5,529C 258.167,527.667 258.167,526.333 255.5,525C 255.5,523.667 255.5,522.333 255.5,521C 258.167,519.667 258.167,518.333 255.5,517C 255.5,515.667 255.5,514.333 255.5,513C 258.167,511.667 258.167,510.333 255.5,509C 254.939,507.434 255.606,506.101 257.5,505C 256.833,504.333 256.167,503.667 255.5,503C 255.5,501.667 255.5,500.333 255.5,499C 258.167,497.667 258.167,496.333 255.5,495C 255.5,493.667 255.5,492.333 255.5,491C 258.167,489.667 258.167,488.333 255.5,487C 255.5,485.667 255.5,484.333 255.5,483C 258.167,481.667 258.167,480.333 255.5,479C 255.5,477.667 255.5,476.333 255.5,475C 258.167,473.667 258.167,472.333 255.5,471C 255.5,469.667 255.5,468.333 255.5,467C 258.167,465.667 258.167,464.333 255.5,463C 255.5,461.667 255.5,460.333 255.5,459C 258.167,457.667 258.167,456.333 255.5,455C 255.5,453.667 255.5,452.333 255.5,451C 258.167,449.667 258.167,448.333 255.5,447C 255.5,445.667 255.5,444.333 255.5,443C 258.167,441.667 258.167,440.333 255.5,439C 255.5,437.667 255.5,436.333 255.5,435C 258.167,433.667 258.167,432.333 255.5,431C 255.5,429.667 255.5,428.333 255.5,427C 258.167,425.667 258.167,424.333 255.5,423C 255.5,421.667 255.5,420.333 255.5,419C 257.81,416.136 257.144,415.302 253.5,416.5C 259.585,402.777 267.252,390.11 276.5,378.5 Z"/></g>
<g><path style="opacity:1" fill="#ffdb5d" d="M 766.5,409.5 C 794.476,466.477 794.476,523.477 766.5,580.5C 765.078,580.25 764.078,579.417 763.5,578C 763.833,577 764.167,576 764.5,575C 761.833,573.667 761.833,572.333 764.5,571C 764.5,569.667 764.5,568.333 764.5,567C 761.833,565.667 761.833,564.333 764.5,563C 764.5,561.667 764.5,560.333 764.5,559C 761.833,557.667 761.833,556.333 764.5,555C 764.5,553.667 764.5,552.333 764.5,551C 761.833,549.667 761.833,548.333 764.5,547C 764.5,545.667 764.5,544.333 764.5,543C 761.833,541.667 761.833,540.333 764.5,539C 764.5,537.667 764.5,536.333 764.5,535C 761.833,533.667 761.833,532.333 764.5,531C 764.5,529.667 764.5,528.333 764.5,527C 761.833,525.667 761.833,524.333 764.5,523C 764.5,521.667 764.5,520.333 764.5,519C 761.833,517.667 761.833,516.333 764.5,515C 764.5,513.667 764.5,512.333 764.5,511C 763.833,510.333 763.167,509.667 762.5,509C 764.394,507.899 765.061,506.566 764.5,505C 761.833,503.667 761.833,502.333 764.5,501C 764.5,499.667 764.5,498.333 764.5,497C 761.833,495.667 761.833,494.333 764.5,493C 764.5,491.667 764.5,490.333 764.5,489C 761.833,487.667 761.833,486.333 764.5,485C 764.5,483.667 764.5,482.333 764.5,481C 761.833,479.667 761.833,478.333 764.5,477C 764.5,475.667 764.5,474.333 764.5,473C 761.833,471.667 761.833,470.333 764.5,469C 764.5,467.667 764.5,466.333 764.5,465C 761.833,463.667 761.833,462.333 764.5,461C 764.5,459.667 764.5,458.333 764.5,457C 761.833,455.667 761.833,454.333 764.5,453C 764.5,451.667 764.5,450.333 764.5,449C 761.833,447.667 761.833,446.333 764.5,445C 764.5,443.667 764.5,442.333 764.5,441C 761.833,439.667 761.833,438.333 764.5,437C 764.5,435.667 764.5,434.333 764.5,433C 761.833,431.667 761.833,430.333 764.5,429C 764.5,427.667 764.5,426.333 764.5,425C 761.833,423.667 761.833,422.333 764.5,421C 764.5,419.667 764.5,418.333 764.5,417C 763.833,416.333 763.167,415.667 762.5,415C 762.743,412.725 764.076,410.892 766.5,409.5 Z"/></g>
<g><path style="opacity:1" fill="#ff6ac2" d="M 254.5,576.5 C 229.571,523.183 229.237,469.85 253.5,416.5C 257.144,415.302 257.81,416.136 255.5,419C 255.5,420.333 255.5,421.667 255.5,423C 258.167,424.333 258.167,425.667 255.5,427C 255.5,428.333 255.5,429.667 255.5,431C 258.167,432.333 258.167,433.667 255.5,435C 255.5,436.333 255.5,437.667 255.5,439C 258.167,440.333 258.167,441.667 255.5,443C 255.5,444.333 255.5,445.667 255.5,447C 258.167,448.333 258.167,449.667 255.5,451C 255.5,452.333 255.5,453.667 255.5,455C 258.167,456.333 258.167,457.667 255.5,459C 255.5,460.333 255.5,461.667 255.5,463C 258.167,464.333 258.167,465.667 255.5,467C 255.5,468.333 255.5,469.667 255.5,471C 258.167,472.333 258.167,473.667 255.5,475C 255.5,476.333 255.5,477.667 255.5,479C 258.167,480.333 258.167,481.667 255.5,483C 255.5,484.333 255.5,485.667 255.5,487C 258.167,488.333 258.167,489.667 255.5,491C 255.5,492.333 255.5,493.667 255.5,495C 258.167,496.333 258.167,497.667 255.5,499C 255.5,500.333 255.5,501.667 255.5,503C 256.167,503.667 256.833,504.333 257.5,505C 255.606,506.101 254.939,507.434 255.5,509C 258.167,510.333 258.167,511.667 255.5,513C 255.5,514.333 255.5,515.667 255.5,517C 258.167,518.333 258.167,519.667 255.5,521C 255.5,522.333 255.5,523.667 255.5,525C 258.167,526.333 258.167,527.667 255.5,529C 255.5,530.333 255.5,531.667 255.5,533C 258.167,534.333 258.167,535.667 255.5,537C 255.5,538.333 255.5,539.667 255.5,541C 258.167,542.333 258.167,543.667 255.5,545C 255.5,546.333 255.5,547.667 255.5,549C 258.167,550.333 258.167,551.667 255.5,553C 255.5,554.333 255.5,555.667 255.5,557C 258.167,558.333 258.167,559.667 255.5,561C 255.5,562.333 255.5,563.667 255.5,565C 258.167,566.333 258.167,567.667 255.5,569C 255.5,570.333 255.5,571.667 255.5,573C 258.159,574.866 257.826,576.033 254.5,576.5 Z"/></g>
<g><path style="opacity:1" fill="#4f4f4f" d="M 604.5,434.5 C 604.511,436.017 605.177,437.184 606.5,438C 607.061,439.566 606.394,440.899 604.5,442C 605.167,442.667 605.833,443.333 606.5,444C 606.5,445.333 606.5,446.667 606.5,448C 603.833,449.333 603.833,450.667 606.5,452C 606.5,453.333 606.5,454.667 606.5,456C 603.833,457.333 603.833,458.667 606.5,460C 606.5,461.333 606.5,462.667 606.5,464C 603.833,465.333 603.833,466.667 606.5,468C 606.5,469.333 606.5,470.667 606.5,472C 603.833,473.333 603.833,474.667 606.5,476C 606.5,477.333 606.5,478.667 606.5,480C 603.833,481.333 603.833,482.667 606.5,484C 606.5,485.333 606.5,486.667 606.5,488C 603.833,489.333 603.833,490.667 606.5,492C 606.5,493.333 606.5,494.667 606.5,496C 603.833,497.333 603.833,498.667 606.5,500C 606.5,501.333 606.5,502.667 606.5,504C 603.833,505.333 603.833,506.667 606.5,508C 607.061,509.566 606.394,510.899 604.5,512C 605.167,512.667 605.833,513.333 606.5,514C 606.5,515.333 606.5,516.667 606.5,518C 603.833,519.333 603.833,520.667 606.5,522C 606.5,523.333 606.5,524.667 606.5,526C 603.833,527.333 603.833,528.667 606.5,530C 606.5,531.333 606.5,532.667 606.5,534C 603.833,535.333 603.833,536.667 606.5,538C 606.5,539.333 606.5,540.667 606.5,542C 603.833,543.333 603.833,544.667 606.5,546C 605.484,547.942 605.151,550.109 605.5,552.5C 594.315,555.236 587.648,550.902 585.5,539.5C 585.5,529.167 585.5,518.833 585.5,508.5C 583.167,508.5 580.833,508.5 578.5,508.5C 578.5,498.833 578.5,489.167 578.5,479.5C 581.059,479.802 583.393,479.468 585.5,478.5C 585.333,466.829 585.5,455.162 586,443.5C 590.023,435.737 596.189,432.737 604.5,434.5 Z"/></g>
<g><path style="opacity:1" fill="#545454" d="M 604.5,434.5 C 612.69,439.094 620.357,444.427 627.5,450.5C 627.297,452.39 627.963,453.89 629.5,455C 626.833,456.333 626.833,457.667 629.5,459C 626.833,460.333 626.833,461.667 629.5,463C 626.833,464.333 626.833,465.667 629.5,467C 626.833,468.333 626.833,469.667 629.5,471C 626.833,472.333 626.833,473.667 629.5,475C 626.833,476.333 626.833,477.667 629.5,479C 626.833,480.333 626.833,481.667 629.5,483C 626.833,484.333 626.833,485.667 629.5,487C 626.833,488.333 626.833,489.667 629.5,491C 626.833,492.333 626.833,493.667 629.5,495C 626.833,496.333 626.833,497.667 629.5,499C 626.833,500.333 626.833,501.667 629.5,503C 626.833,504.333 626.833,505.667 629.5,507C 630.061,508.566 629.394,509.899 627.5,511C 630.167,512.333 630.167,513.667 627.5,515C 630.167,516.333 630.167,517.667 627.5,519C 630.167,520.333 630.167,521.667 627.5,523C 630.167,524.333 630.167,525.667 627.5,527C 630.167,528.333 630.167,529.667 627.5,531C 628.167,531.667 628.833,532.333 629.5,533C 627.859,534.129 626.859,535.629 626.5,537.5C 619.802,542.856 612.802,547.856 605.5,552.5C 605.151,550.109 605.484,547.942 606.5,546C 603.833,544.667 603.833,543.333 606.5,542C 606.5,540.667 606.5,539.333 606.5,538C 603.833,536.667 603.833,535.333 606.5,534C 606.5,532.667 606.5,531.333 606.5,530C 603.833,528.667 603.833,527.333 606.5,526C 606.5,524.667 606.5,523.333 606.5,522C 603.833,520.667 603.833,519.333 606.5,518C 606.5,516.667 606.5,515.333 606.5,514C 605.833,513.333 605.167,512.667 604.5,512C 606.394,510.899 607.061,509.566 606.5,508C 603.833,506.667 603.833,505.333 606.5,504C 606.5,502.667 606.5,501.333 606.5,500C 603.833,498.667 603.833,497.333 606.5,496C 606.5,494.667 606.5,493.333 606.5,492C 603.833,490.667 603.833,489.333 606.5,488C 606.5,486.667 606.5,485.333 606.5,484C 603.833,482.667 603.833,481.333 606.5,480C 606.5,478.667 606.5,477.333 606.5,476C 603.833,474.667 603.833,473.333 606.5,472C 606.5,470.667 606.5,469.333 606.5,468C 603.833,466.667 603.833,465.333 606.5,464C 606.5,462.667 606.5,461.333 606.5,460C 603.833,458.667 603.833,457.333 606.5,456C 606.5,454.667 606.5,453.333 606.5,452C 603.833,450.667 603.833,449.333 606.5,448C 606.5,446.667 606.5,445.333 606.5,444C 605.833,443.333 605.167,442.667 604.5,442C 606.394,440.899 607.061,439.566 606.5,438C 605.177,437.184 604.511,436.017 604.5,434.5 Z"/></g>
<g><path style="opacity:1" fill="#5c5c5c" d="M 627.5,450.5 C 642.791,461.951 657.957,473.618 673,485.5C 676.804,492.569 675.97,499.069 670.5,505C 655.674,515.665 641.008,526.498 626.5,537.5C 626.859,535.629 627.859,534.129 629.5,533C 628.833,532.333 628.167,531.667 627.5,531C 630.167,529.667 630.167,528.333 627.5,527C 630.167,525.667 630.167,524.333 627.5,523C 630.167,521.667 630.167,520.333 627.5,519C 630.167,517.667 630.167,516.333 627.5,515C 630.167,513.667 630.167,512.333 627.5,511C 629.394,509.899 630.061,508.566 629.5,507C 626.833,505.667 626.833,504.333 629.5,503C 626.833,501.667 626.833,500.333 629.5,499C 626.833,497.667 626.833,496.333 629.5,495C 626.833,493.667 626.833,492.333 629.5,491C 626.833,489.667 626.833,488.333 629.5,487C 626.833,485.667 626.833,484.333 629.5,483C 626.833,481.667 626.833,480.333 629.5,479C 626.833,477.667 626.833,476.333 629.5,475C 626.833,473.667 626.833,472.333 629.5,471C 626.833,469.667 626.833,468.333 629.5,467C 626.833,465.667 626.833,464.333 629.5,463C 626.833,461.667 626.833,460.333 629.5,459C 626.833,457.667 626.833,456.333 629.5,455C 627.963,453.89 627.297,452.39 627.5,450.5 Z"/></g>
<g><path style="opacity:1" fill="#5c5c5c" d="M 585.5,478.5 C 583.393,479.468 581.059,479.802 578.5,479.5C 570.5,479.5 562.5,479.5 554.5,479.5C 538.5,479.5 522.5,479.5 506.5,479.5C 490.5,479.5 474.5,479.5 458.5,479.5C 442.5,479.5 426.5,479.5 410.5,479.5C 401.833,479.5 393.167,479.5 384.5,479.5C 372.5,479.5 360.5,479.5 348.5,479.5C 348.5,489.167 348.5,498.833 348.5,508.5C 348.167,508.5 347.833,508.5 347.5,508.5C 347.5,498.5 347.5,488.5 347.5,478.5C 426.833,478.5 506.167,478.5 585.5,478.5 Z"/></g>
<g><path style="opacity:1" fill="#141414" d="M 384.5,479.5 C 384.5,489.167 384.5,498.833 384.5,508.5C 372.5,508.5 360.5,508.5 348.5,508.5C 348.5,498.833 348.5,489.167 348.5,479.5C 360.5,479.5 372.5,479.5 384.5,479.5 Z"/></g>
<g><path style="opacity:1" fill="#1c1c1c" d="M 384.5,479.5 C 393.167,479.5 401.833,479.5 410.5,479.5C 410.5,489.167 410.5,498.833 410.5,508.5C 401.833,508.5 393.167,508.5 384.5,508.5C 384.5,498.833 384.5,489.167 384.5,479.5 Z"/></g>
<g><path style="opacity:1" fill="#262626" d="M 410.5,479.5 C 426.5,479.5 442.5,479.5 458.5,479.5C 458.5,489.167 458.5,498.833 458.5,508.5C 442.5,508.5 426.5,508.5 410.5,508.5C 410.5,498.833 410.5,489.167 410.5,479.5 Z"/></g>
<g><path style="opacity:1" fill="#323232" d="M 458.5,479.5 C 474.5,479.5 490.5,479.5 506.5,479.5C 506.5,489.167 506.5,498.833 506.5,508.5C 490.5,508.5 474.5,508.5 458.5,508.5C 458.5,498.833 458.5,489.167 458.5,479.5 Z"/></g>
<g><path style="opacity:1" fill="#3f3f3f" d="M 506.5,479.5 C 522.5,479.5 538.5,479.5 554.5,479.5C 554.5,489.167 554.5,498.833 554.5,508.5C 538.5,508.5 522.5,508.5 506.5,508.5C 506.5,498.833 506.5,489.167 506.5,479.5 Z"/></g>
<g><path style="opacity:1" fill="#474747" d="M 554.5,479.5 C 562.5,479.5 570.5,479.5 578.5,479.5C 578.5,489.167 578.5,498.833 578.5,508.5C 570.5,508.5 562.5,508.5 554.5,508.5C 554.5,498.833 554.5,489.167 554.5,479.5 Z"/></g>
<g><path style="opacity:1" fill="#cccccc" d="M 347.5,508.5 C 347.833,508.5 348.167,508.5 348.5,508.5C 360.5,508.5 372.5,508.5 384.5,508.5C 393.167,508.5 401.833,508.5 410.5,508.5C 426.5,508.5 442.5,508.5 458.5,508.5C 474.5,508.5 490.5,508.5 506.5,508.5C 522.5,508.5 538.5,508.5 554.5,508.5C 562.5,508.5 570.5,508.5 578.5,508.5C 580.833,508.5 583.167,508.5 585.5,508.5C 585.5,518.833 585.5,529.167 585.5,539.5C 584.506,529.681 584.173,519.681 584.5,509.5C 505.332,509.833 426.332,509.499 347.5,508.5 Z"/></g>
<g><path style="opacity:1" fill="#ffd065" d="M 731.5,520.5 C 732.168,555.167 732.168,589.667 731.5,624C 732,624.5 732.5,625 733,625.5C 733.953,623.627 735.12,623.294 736.5,624.5C 730.5,631.167 724.167,637.5 717.5,643.5C 716.244,643.539 715.244,643.039 714.5,642C 715.833,641.333 715.833,640.667 714.5,640C 715.5,639 716.5,638 717.5,637C 716.5,636 715.5,635 714.5,634C 715.833,633.333 715.833,632.667 714.5,632C 715.5,631 716.5,630 717.5,629C 716.5,628 715.5,627 714.5,626C 715.833,625.333 715.833,624.667 714.5,624C 715.5,623 716.5,622 717.5,621C 716.5,620 715.5,619 714.5,618C 715.833,617.333 715.833,616.667 714.5,616C 715.5,615 716.5,614 717.5,613C 716.5,612 715.5,611 714.5,610C 715.833,609.333 715.833,608.667 714.5,608C 715.5,607 716.5,606 717.5,605C 716.5,604 715.5,603 714.5,602C 715.833,601.333 715.833,600.667 714.5,600C 715.5,599 716.5,598 717.5,597C 716.5,596 715.5,595 714.5,594C 715.833,593.333 715.833,592.667 714.5,592C 715.5,591 716.5,590 717.5,589C 716.5,588 715.5,587 714.5,586C 715.833,585.333 715.833,584.667 714.5,584C 715.5,583 716.5,582 717.5,581C 716.5,580 715.5,579 714.5,578C 715.833,577.333 715.833,576.667 714.5,576C 715.5,575 716.5,574 717.5,573C 716.5,572 715.5,571 714.5,570C 715.833,569.333 715.833,568.667 714.5,568C 715.5,567 716.5,566 717.5,565C 716.619,564.292 715.953,563.458 715.5,562.5C 722.236,548.949 727.569,534.949 731.5,520.5 Z"/></g>
<g><path style="opacity:1" fill="#ffcc69" d="M 715.5,562.5 C 715.953,563.458 716.619,564.292 717.5,565C 716.5,566 715.5,567 714.5,568C 715.833,568.667 715.833,569.333 714.5,570C 715.5,571 716.5,572 717.5,573C 716.5,574 715.5,575 714.5,576C 715.833,576.667 715.833,577.333 714.5,578C 715.5,579 716.5,580 717.5,581C 716.5,582 715.5,583 714.5,584C 715.833,584.667 715.833,585.333 714.5,586C 715.5,587 716.5,588 717.5,589C 716.5,590 715.5,591 714.5,592C 715.833,592.667 715.833,593.333 714.5,594C 715.5,595 716.5,596 717.5,597C 716.5,598 715.5,599 714.5,600C 715.833,600.667 715.833,601.333 714.5,602C 715.5,603 716.5,604 717.5,605C 716.5,606 715.5,607 714.5,608C 715.833,608.667 715.833,609.333 714.5,610C 715.5,611 716.5,612 717.5,613C 716.5,614 715.5,615 714.5,616C 715.833,616.667 715.833,617.333 714.5,618C 715.5,619 716.5,620 717.5,621C 716.5,622 715.5,623 714.5,624C 715.833,624.667 715.833,625.333 714.5,626C 715.5,627 716.5,628 717.5,629C 716.5,630 715.5,631 714.5,632C 715.833,632.667 715.833,633.333 714.5,634C 715.5,635 716.5,636 717.5,637C 716.5,638 715.5,639 714.5,640C 715.833,640.667 715.833,641.333 714.5,642C 715.244,643.039 716.244,643.539 717.5,643.5C 711.778,649.555 705.444,654.889 698.5,659.5C 696.158,659.225 696.158,658.392 698.5,657C 695.833,655.667 695.833,654.333 698.5,653C 695.833,651.667 695.833,650.333 698.5,649C 695.833,647.667 695.833,646.333 698.5,645C 695.833,643.667 695.833,642.333 698.5,641C 695.833,639.667 695.833,638.333 698.5,637C 695.833,635.667 695.833,634.333 698.5,633C 695.833,631.667 695.833,630.333 698.5,629C 695.833,627.667 695.833,626.333 698.5,625C 695.833,623.667 695.833,622.333 698.5,621C 695.833,619.667 695.833,618.333 698.5,617C 695.833,615.667 695.833,614.333 698.5,613C 695.833,611.667 695.833,610.333 698.5,609C 695.833,607.667 695.833,606.333 698.5,605C 695.833,603.667 695.833,602.333 698.5,601C 695.833,599.667 695.833,598.333 698.5,597C 695.833,595.667 695.833,594.333 698.5,593C 697.833,592.333 697.167,591.667 696.5,591C 697.582,589.67 698.249,588.17 698.5,586.5C 704.199,578.477 709.866,570.477 715.5,562.5 Z"/></g>
<g><path style="opacity:1" fill="#ff7ab2" d="M 310.5,567.5 C 319.005,580.017 328.672,591.683 339.5,602.5C 339.264,624.049 339.264,645.549 339.5,667C 338.956,667.717 338.289,668.217 337.5,668.5C 326.897,662.369 317.23,655.036 308.5,646.5C 309.973,645.928 311.307,645.095 312.5,644C 311.167,620.667 311.167,597.333 312.5,574C 310.275,572.069 309.608,569.903 310.5,567.5 Z"/></g>
<g><path style="opacity:1" fill="#ffc96c" d="M 698.5,586.5 C 698.249,588.17 697.582,589.67 696.5,591C 697.167,591.667 697.833,592.333 698.5,593C 695.833,594.333 695.833,595.667 698.5,597C 695.833,598.333 695.833,599.667 698.5,601C 695.833,602.333 695.833,603.667 698.5,605C 695.833,606.333 695.833,607.667 698.5,609C 695.833,610.333 695.833,611.667 698.5,613C 695.833,614.333 695.833,615.667 698.5,617C 695.833,618.333 695.833,619.667 698.5,621C 695.833,622.333 695.833,623.667 698.5,625C 695.833,626.333 695.833,627.667 698.5,629C 695.833,630.333 695.833,631.667 698.5,633C 695.833,634.333 695.833,635.667 698.5,637C 695.833,638.333 695.833,639.667 698.5,641C 695.833,642.333 695.833,643.667 698.5,645C 695.833,646.333 695.833,647.667 698.5,649C 695.833,650.333 695.833,651.667 698.5,653C 695.833,654.333 695.833,655.667 698.5,657C 696.158,658.392 696.158,659.225 698.5,659.5C 694.447,662.883 690.114,665.883 685.5,668.5C 684.373,667.878 683.373,667.045 682.5,666C 683.598,645.216 683.598,624.382 682.5,603.5C 687.861,597.807 693.195,592.14 698.5,586.5 Z"/></g>
<g><path style="opacity:1" fill="#ff7daf" d="M 339.5,602.5 C 341.858,604.529 344.192,606.529 346.5,608.5C 346.615,629.942 346.948,651.109 347.5,672C 346.956,672.717 346.289,673.217 345.5,673.5C 342.489,672.331 339.822,670.664 337.5,668.5C 338.289,668.217 338.956,667.717 339.5,667C 339.264,645.549 339.264,624.049 339.5,602.5 Z"/></g>
<g><path style="opacity:1" fill="#ffc470" d="M 682.5,603.5 C 683.598,624.382 683.598,645.216 682.5,666C 683.373,667.045 684.373,667.878 685.5,668.5C 676.826,674.841 667.493,680.175 657.5,684.5C 654.93,683.516 654.93,682.349 657.5,681C 654.833,679.667 654.833,678.333 657.5,677C 654.833,675.667 654.833,674.333 657.5,673C 654.833,671.667 654.833,670.333 657.5,669C 654.833,667.667 654.833,666.333 657.5,665C 654.833,663.667 654.833,662.333 657.5,661C 654.833,659.667 654.833,658.333 657.5,657C 654.833,655.667 654.833,654.333 657.5,653C 654.833,651.667 654.833,650.333 657.5,649C 654.833,647.667 654.833,646.333 657.5,645C 654.833,643.667 654.833,642.333 657.5,641C 654.833,639.667 654.833,638.333 657.5,637C 654.833,635.667 654.833,634.333 657.5,633C 654.833,631.667 654.833,630.333 657.5,629C 654.833,627.667 654.833,626.333 657.5,625C 656.944,624.617 656.611,624.117 656.5,623.5C 665.452,617.216 674.118,610.55 682.5,603.5 Z"/></g>
<g><path style="opacity:1" fill="#ff81ac" d="M 346.5,608.5 C 354.304,615.235 362.637,621.235 371.5,626.5C 370.381,646.274 370.381,665.774 371.5,685C 370.756,686.039 369.756,686.539 368.5,686.5C 360.339,682.923 352.672,678.589 345.5,673.5C 346.289,673.217 346.956,672.717 347.5,672C 346.948,651.109 346.615,629.942 346.5,608.5 Z"/></g>
<g><path style="opacity:1" fill="#ffbe75" d="M 656.5,623.5 C 656.611,624.117 656.944,624.617 657.5,625C 654.833,626.333 654.833,627.667 657.5,629C 654.833,630.333 654.833,631.667 657.5,633C 654.833,634.333 654.833,635.667 657.5,637C 654.833,638.333 654.833,639.667 657.5,641C 654.833,642.333 654.833,643.667 657.5,645C 654.833,646.333 654.833,647.667 657.5,649C 654.833,650.333 654.833,651.667 657.5,653C 654.833,654.333 654.833,655.667 657.5,657C 654.833,658.333 654.833,659.667 657.5,661C 654.833,662.333 654.833,663.667 657.5,665C 654.833,666.333 654.833,667.667 657.5,669C 654.833,670.333 654.833,671.667 657.5,673C 654.833,674.333 654.833,675.667 657.5,677C 654.833,678.333 654.833,679.667 657.5,681C 654.93,682.349 654.93,683.516 657.5,684.5C 649.178,689.824 640.178,693.824 630.5,696.5C 629.761,696.631 629.094,696.464 628.5,696C 629.479,694.221 629.146,692.555 627.5,691C 628.167,690.333 628.833,689.667 629.5,689C 629.5,687.667 629.5,686.333 629.5,685C 626.833,683.667 626.833,682.333 629.5,681C 629.5,679.667 629.5,678.333 629.5,677C 626.833,675.667 626.833,674.333 629.5,673C 629.5,671.667 629.5,670.333 629.5,669C 626.833,667.667 626.833,666.333 629.5,665C 629.5,663.667 629.5,662.333 629.5,661C 626.833,659.667 626.833,658.333 629.5,657C 629.5,655.667 629.5,654.333 629.5,653C 626.833,651.667 626.833,650.333 629.5,649C 629.5,647.667 629.5,646.333 629.5,645C 628.833,644.333 628.167,643.667 627.5,643C 628.883,641.729 629.883,640.229 630.5,638.5C 639.493,634.005 648.16,629.005 656.5,623.5 Z"/></g>
<g><path style="opacity:1" fill="#ff87a7" d="M 371.5,626.5 C 380.547,632.024 389.88,637.024 399.5,641.5C 398.832,660.167 398.832,678.667 399.5,697C 398.756,698.039 397.756,698.539 396.5,698.5C 386.679,695.455 377.346,691.455 368.5,686.5C 369.756,686.539 370.756,686.039 371.5,685C 370.381,665.774 370.381,646.274 371.5,626.5 Z"/></g>
<g><path style="opacity:1" fill="#ffb87a" d="M 630.5,638.5 C 629.883,640.229 628.883,641.729 627.5,643C 628.167,643.667 628.833,644.333 629.5,645C 629.5,646.333 629.5,647.667 629.5,649C 626.833,650.333 626.833,651.667 629.5,653C 629.5,654.333 629.5,655.667 629.5,657C 626.833,658.333 626.833,659.667 629.5,661C 629.5,662.333 629.5,663.667 629.5,665C 626.833,666.333 626.833,667.667 629.5,669C 629.5,670.333 629.5,671.667 629.5,673C 626.833,674.333 626.833,675.667 629.5,677C 629.5,678.333 629.5,679.667 629.5,681C 626.833,682.333 626.833,683.667 629.5,685C 629.5,686.333 629.5,687.667 629.5,689C 628.833,689.667 628.167,690.333 627.5,691C 629.146,692.555 629.479,694.221 628.5,696C 629.094,696.464 629.761,696.631 630.5,696.5C 620.914,700.806 610.914,704.14 600.5,706.5C 601.404,687.952 601.404,669.285 600.5,650.5C 610.721,647.056 620.721,643.056 630.5,638.5 Z"/></g>
<g><path style="opacity:1" fill="#ff8da1" d="M 399.5,641.5 C 408.61,645.721 417.943,649.388 427.5,652.5C 425.069,654.068 425.069,655.568 427.5,657C 424.833,658.333 424.833,659.667 427.5,661C 424.833,662.333 424.833,663.667 427.5,665C 424.833,666.333 424.833,667.667 427.5,669C 424.833,670.333 424.833,671.667 427.5,673C 424.833,674.333 424.833,675.667 427.5,677C 424.833,678.333 424.833,679.667 427.5,681C 424.833,682.333 424.833,683.667 427.5,685C 424.833,686.333 424.833,687.667 427.5,689C 424.833,690.333 424.833,691.667 427.5,693C 424.833,694.333 424.833,695.667 427.5,697C 424.833,698.333 424.833,699.667 427.5,701C 424.833,702.333 424.833,703.667 427.5,705C 427,705.5 426.5,706 426,706.5C 424.701,706.034 423.201,706.034 421.5,706.5C 412.831,704.609 404.498,701.943 396.5,698.5C 397.756,698.539 398.756,698.039 399.5,697C 398.832,678.667 398.832,660.167 399.5,641.5 Z"/></g>
<g><path style="opacity:1" fill="#ffb280" d="M 600.5,650.5 C 601.404,669.285 601.404,687.952 600.5,706.5C 590.656,710.393 580.322,712.727 569.5,713.5C 570.265,695.289 570.598,676.956 570.5,658.5C 580.748,656.718 590.748,654.051 600.5,650.5 Z"/></g>
<g><path style="opacity:1" fill="#ff939c" d="M 427.5,652.5 C 436.769,655.087 446.102,657.42 455.5,659.5C 455.489,661.017 454.823,662.184 453.5,663C 453.5,664.333 453.5,665.667 453.5,667C 456.167,668.333 456.167,669.667 453.5,671C 453.5,672.333 453.5,673.667 453.5,675C 456.167,676.333 456.167,677.667 453.5,679C 453.5,680.333 453.5,681.667 453.5,683C 456.167,684.333 456.167,685.667 453.5,687C 453.5,688.333 453.5,689.667 453.5,691C 456.167,692.333 456.167,693.667 453.5,695C 453.5,696.333 453.5,697.667 453.5,699C 456.167,700.333 456.167,701.667 453.5,703C 453.5,704.333 453.5,705.667 453.5,707C 456.167,708.333 456.167,709.667 453.5,711C 454.412,712.625 453.745,713.459 451.5,713.5C 441.252,711.77 431.252,709.436 421.5,706.5C 423.201,706.034 424.701,706.034 426,706.5C 426.5,706 427,705.5 427.5,705C 424.833,703.667 424.833,702.333 427.5,701C 424.833,699.667 424.833,698.333 427.5,697C 424.833,695.667 424.833,694.333 427.5,693C 424.833,691.667 424.833,690.333 427.5,689C 424.833,687.667 424.833,686.333 427.5,685C 424.833,683.667 424.833,682.333 427.5,681C 424.833,679.667 424.833,678.333 427.5,677C 424.833,675.667 424.833,674.333 427.5,673C 424.833,671.667 424.833,670.333 427.5,669C 424.833,667.667 424.833,666.333 427.5,665C 424.833,663.667 424.833,662.333 427.5,661C 424.833,659.667 424.833,658.333 427.5,657C 425.069,655.568 425.069,654.068 427.5,652.5 Z"/></g>
<g><path style="opacity:1" fill="#ff9898" d="M 455.5,659.5 C 461.724,660.961 468.057,661.961 474.5,662.5C 474.407,664.405 474.074,666.238 473.5,668C 474.574,668.739 475.241,669.739 475.5,671C 474.01,672.663 473.344,674.33 473.5,676C 474.574,676.739 475.241,677.739 475.5,679C 474.01,680.663 473.344,682.33 473.5,684C 474.574,684.739 475.241,685.739 475.5,687C 474.01,688.663 473.344,690.33 473.5,692C 474.574,692.739 475.241,693.739 475.5,695C 474.01,696.663 473.344,698.33 473.5,700C 474.574,700.739 475.241,701.739 475.5,703C 474.01,704.663 473.344,706.33 473.5,708C 476.167,710 476.167,712 473.5,714C 474.412,715.625 473.745,716.459 471.5,716.5C 464.578,716.344 457.911,715.344 451.5,713.5C 453.745,713.459 454.412,712.625 453.5,711C 456.167,709.667 456.167,708.333 453.5,707C 453.5,705.667 453.5,704.333 453.5,703C 456.167,701.667 456.167,700.333 453.5,699C 453.5,697.667 453.5,696.333 453.5,695C 456.167,693.667 456.167,692.333 453.5,691C 453.5,689.667 453.5,688.333 453.5,687C 456.167,685.667 456.167,684.333 453.5,683C 453.5,681.667 453.5,680.333 453.5,679C 456.167,677.667 456.167,676.333 453.5,675C 453.5,673.667 453.5,672.333 453.5,671C 456.167,669.667 456.167,668.333 453.5,667C 453.5,665.667 453.5,664.333 453.5,663C 454.823,662.184 455.489,661.017 455.5,659.5 Z"/></g>
<g><path style="opacity:1" fill="#ffab86" d="M 570.5,658.5 C 570.598,676.956 570.265,695.289 569.5,713.5C 560.248,715.488 550.914,716.822 541.5,717.5C 541.833,699.5 542.167,681.5 542.5,663.5C 551.9,662.149 561.233,660.483 570.5,658.5 Z"/></g>
<g><path style="opacity:1" fill="#ff9b95" d="M 474.5,662.5 C 478.833,663.167 483.167,663.833 487.5,664.5C 485.069,666.068 485.069,667.568 487.5,669C 484.833,670.333 484.833,671.667 487.5,673C 484.833,674.333 484.833,675.667 487.5,677C 484.833,678.333 484.833,679.667 487.5,681C 484.833,682.333 484.833,683.667 487.5,685C 484.833,686.333 484.833,687.667 487.5,689C 484.833,690.333 484.833,691.667 487.5,693C 484.833,694.333 484.833,695.667 487.5,697C 484.833,698.333 484.833,699.667 487.5,701C 484.833,702.333 484.833,703.667 487.5,705C 484.833,706.333 484.833,707.667 487.5,709C 484.833,710.333 484.833,711.667 487.5,713C 484.833,714.333 484.833,715.667 487.5,717C 485.866,717.494 484.199,717.66 482.5,717.5C 478.629,717.815 474.962,717.482 471.5,716.5C 473.745,716.459 474.412,715.625 473.5,714C 476.167,712 476.167,710 473.5,708C 473.344,706.33 474.01,704.663 475.5,703C 475.241,701.739 474.574,700.739 473.5,700C 473.344,698.33 474.01,696.663 475.5,695C 475.241,693.739 474.574,692.739 473.5,692C 473.344,690.33 474.01,688.663 475.5,687C 475.241,685.739 474.574,684.739 473.5,684C 473.344,682.33 474.01,680.663 475.5,679C 475.241,677.739 474.574,676.739 473.5,676C 473.344,674.33 474.01,672.663 475.5,671C 475.241,669.739 474.574,668.739 473.5,668C 474.074,666.238 474.407,664.405 474.5,662.5 Z"/></g>
<g><path style="opacity:1" fill="#ff9f91" d="M 487.5,664.5 C 492.833,664.5 498.167,664.5 503.5,664.5C 506.977,665.323 510.644,665.823 514.5,666C 514.264,683.451 514.264,700.951 514.5,718.5C 503.654,718.828 492.987,718.494 482.5,717.5C 484.199,717.66 485.866,717.494 487.5,717C 484.833,715.667 484.833,714.333 487.5,713C 484.833,711.667 484.833,710.333 487.5,709C 484.833,707.667 484.833,706.333 487.5,705C 484.833,703.667 484.833,702.333 487.5,701C 484.833,699.667 484.833,698.333 487.5,697C 484.833,695.667 484.833,694.333 487.5,693C 484.833,691.667 484.833,690.333 487.5,689C 484.833,687.667 484.833,686.333 487.5,685C 484.833,683.667 484.833,682.333 487.5,681C 484.833,679.667 484.833,678.333 487.5,677C 484.833,675.667 484.833,674.333 487.5,673C 484.833,671.667 484.833,670.333 487.5,669C 485.069,667.568 485.069,666.068 487.5,664.5 Z"/></g>
<g><path style="opacity:1" fill="#ffa68c" d="M 542.5,663.5 C 542.167,681.5 541.833,699.5 541.5,717.5C 532.533,718.383 523.533,718.716 514.5,718.5C 514.264,700.951 514.264,683.451 514.5,666C 510.644,665.823 506.977,665.323 503.5,664.5C 516.52,664.687 529.52,664.354 542.5,663.5 Z"/></g>
</svg>
